<?xml version="1.0" standalone="no"?><!DOCTYPE svg PUBLIC "-//W3C//DTD SVG 1.1//EN" "http://www.w3.org/Graphics/SVG/1.1/DTD/svg11.dtd"><svg t="1617289335366" class="icon" viewBox="0 0 1118 1024" version="1.1" xmlns="http://www.w3.org/2000/svg" p-id="6177" xmlns:xlink="http://www.w3.org/1999/xlink" width="34.9375" height="32"><defs><style type="text/css"></style></defs><path d="M612.179659 296.073255c-36.410249 20.73431-49.114605 67.060968-28.37473 103.471217 20.739874 36.404684 67.066533 49.103475 103.471217 28.369165 36.410249-20.739874 49.114605-67.066533 28.380295-103.476781-20.739874-36.404684-67.072097-49.10904-103.476782-28.369166M539.38142 167.248974c-25.731468 14.663152-34.718561 47.411787-20.049844 73.14882 14.652023 25.737032 47.411787 34.718561 73.143255 20.055408 25.742597-14.663152 34.718561-47.411787 20.060973-73.148819-14.663152-25.737032-47.411787-34.724126-73.148819-20.055409M539.38142 765.72262c-25.731468 14.663152-34.718561 47.411787-20.049844 73.14882 14.652023 25.742597 47.411787 34.724126 73.143255 20.055408 25.742597-14.657588 34.718561-47.411787 20.060973-73.148819-14.663152-25.737032-47.411787-34.712996-73.148819-20.055409M797.391691 315.38855c-25.737032 14.663152-34.718561 47.411787-20.055409 73.148819a53.627628 53.627628 0 0 0 73.14882 20.055409c25.737032-14.657588 34.724126-47.411787 20.055408-73.14882-14.663152-25.737032-47.411787-34.712996-73.148819-20.055408M276.051235 615.067772c-25.737032 14.668717-34.718561 47.411787-20.055409 73.148819 14.663152 25.742597 47.411787 34.724126 73.14882 20.055409 25.737032-14.657588 34.724126-47.411787 20.055408-73.14882-14.663152-25.731468-47.411787-34.707431-73.148819-20.049844M272.50648 315.38855c-25.737032 14.663152-34.718561 47.411787-20.055408 73.148819a53.627628 53.627628 0 0 0 73.148819 20.055409c25.737032-14.657588 34.718561-47.411787 20.055409-73.14882s-47.411787-34.712996-73.14882-20.055408M797.391691 611.523017c-25.737032 14.663152-34.718561 47.411787-20.055409 73.14882s47.411787 34.724126 73.14882 20.055408c25.737032-14.663152 34.724126-47.411787 20.055408-73.148819-14.663152-25.737032-47.411787-34.718561-73.148819-20.055409M933.171926 474.412803a42.63722 42.63722 0 1 0 42.214298 74.09483 42.63722 42.63722 0 0 0-42.214298-74.09483M147.616488 474.412803a42.631655 42.631655 0 0 0-15.943048 58.151781 42.63722 42.63722 0 1 0 15.943048-58.151781M719.529517 173.025199a42.63722 42.63722 0 1 0 85.26331 1.569263 42.63722 42.63722 0 0 0-85.26331-1.569263M318.20432 848.331538a42.63722 42.63722 0 1 0 85.26331 1.569264 42.63722 42.63722 0 0 0-85.26331-1.569264M341.76553 209.413189a42.63722 42.63722 0 1 0-15.620292-58.235252 42.63722 42.63722 0 0 0 15.620292 58.235252M738.605527 887.368356a42.63722 42.63722 0 0 0 58.240817-15.620292 42.62609 42.62609 0 0 0-15.614727-58.235253 42.63722 42.63722 0 0 0-42.62609 73.855545M699.06788 447.829927c-36.404684 20.739874-49.10904 67.066533-28.369165 103.471217 20.739874 36.410249 67.066533 49.10904 103.476782 28.369165 36.404684-20.739874 49.103475-67.055403 28.369165-103.471217-20.739874-36.404684-67.072097-49.10904-103.476782-28.369165M612.179659 599.592164c-36.410249 20.739874-49.114605 67.066533-28.37473 103.471217 20.739874 36.410249 67.066533 49.10904 103.471217 28.369165 36.410249-20.73431 49.114605-67.060968 28.380295-103.471217-20.739874-36.404684-67.072097-49.10904-103.476782-28.369165M510.845312 296.073255c36.39912 20.73431 49.103475 67.060968 28.369165 103.471217-20.739874 36.404684-67.072097 49.103475-103.476782 28.369165-36.410249-20.739874-49.10904-67.066533-28.369165-103.476781 20.739874-36.404684 67.066533-49.10904 103.471217-28.369166M423.951526 447.829927c36.404684 20.739874 49.10904 67.066533 28.369165 103.471217-20.73431 36.410249-67.066533 49.10904-103.471217 28.369165-36.410249-20.739874-49.10904-67.055403-28.369165-103.471217 20.73431-36.404684 67.066533-49.10904 103.471217-28.369165M510.845312 599.592164c36.39912 20.739874 49.103475 67.066533 28.369165 103.471217-20.739874 36.410249-67.072097 49.10904-103.476782 28.369165-36.410249-20.73431-49.10904-67.060968-28.369165-103.471217 20.739874-36.404684 67.066533-49.10904 103.471217-28.369165M594.38911 33.728033a33.68908 33.68908 0 1 1-67.389289 0 33.694644 33.694644 0 1 1 67.389289 0M594.38911 986.860767a33.68908 33.68908 0 1 1-67.389289 0 33.68908 33.68908 0 0 1 67.389289 0M163.348075 245.027677a33.694644 33.694644 0 1 1-33.377453 58.541315 33.694644 33.694644 0 0 1 33.377453-58.541315M991.412744 717.014243a33.694644 33.694644 0 1 1-33.377453 58.541315 33.694644 33.694644 0 0 1 33.377453-58.541315M129.881586 716.797218a33.694644 33.694644 0 1 1 33.332935 58.558008 33.694644 33.694644 0 0 1-33.332935-58.558008M958.17441 245.228009a33.694644 33.694644 0 1 1 33.338499 58.558008 33.694644 33.694644 0 0 1-33.332935-58.558008M320.430226 55.00769a27.495498 27.495498 0 1 1-55.002125 0 27.495498 27.495498 0 0 1 55.002125 0M857.557916 966.465908a27.489933 27.489933 0 1 1-54.99656 0 27.501062 27.501062 0 0 1 54.99656 0M842.310464 78.368568a27.501062 27.501062 0 1 1-26.766514-48.051735 27.501062 27.501062 0 0 1 26.766514 48.051735M307.447632 991.1512a27.501062 27.501062 0 1 1-26.766514-48.051735 27.501062 27.501062 0 0 1 26.766514 48.057299M1076.575888 533.048719a27.495498 27.495498 0 1 1 27.79043-47.456305 27.495498 27.495498 0 0 1-27.79043 47.456305M18.625264 535.881184a27.501062 27.501062 0 1 1 27.80156-47.46187 27.501062 27.501062 0 0 1-27.80156 47.467434" fill="#0033AD" p-id="6178"></path></svg>