<?xml version="1.0" standalone="no"?><!DOCTYPE svg PUBLIC "-//W3C//DTD SVG 1.1//EN" "http://www.w3.org/Graphics/SVG/1.1/DTD/svg11.dtd"><svg t="1621167102764" class="icon" viewBox="0 0 1024 1024" version="1.1" xmlns="http://www.w3.org/2000/svg" p-id="1241" width="32" height="32" xmlns:xlink="http://www.w3.org/1999/xlink"><defs><style type="text/css"></style></defs><path d="M1023.67395 514.470846c0 281.360557-228.087085 509.452736-509.452736 509.452736-281.360557 0-509.452736-228.092179-509.452736-509.452736 0-281.365652 228.092179-509.452736 509.452736-509.452737 281.365652 0 509.452736 228.087085 509.452736 509.452737" fill="#C3A723" p-id="1242"></path><path d="M566.776358 688.097433H454.182209v-145.183841h111.651662v-58.587065H454.182209V341.695045h105.808239s130.231403 0 130.231403 161.175562c0 190.03606-123.445493 185.226826-123.445493 185.226826m-17.499701-448.308219h-198.686567v244.537313h-66.228856v58.587065h66.228856v247.084577h211.422885s231.800995 7.641791 231.800995-294.208955c0-256-244.537313-256-244.537313-256" fill="#FFFFFF" p-id="1243"></path></svg>